<svg width="180" height="240" viewBox="0 0 180 240" xmlns="http://www.w3.org/2000/svg">
  <defs>
    <linearGradient id="grad1" x1="0%" y1="0%" x2="100%" y2="100%">
      <stop offset="0%" style="stop-color:#667eea;stop-opacity:1" />
      <stop offset="100%" style="stop-color:#764ba2;stop-opacity:1" />
    </linearGradient>
  </defs>
  
  <!-- Background -->
  <rect width="180" height="240" fill="url(#grad1)" rx="8" ry="8"/>
  
  <!-- Top section with accent -->
  <rect width="180" height="60" fill="rgba(255,255,255,0.1)" rx="8" ry="8"/>
  
  <!-- Journal title area -->
  <rect x="15" y="15" width="150" height="8" fill="rgba(255,255,255,0.9)" rx="4"/>
  <rect x="15" y="28" width="100" height="6" fill="rgba(255,255,255,0.7)" rx="3"/>
  
  <!-- Main content area -->
  <rect x="15" y="80" width="150" height="120" fill="rgba(255,255,255,0.15)" rx="6"/>
  
  <!-- Abstract lines -->
  <rect x="25" y="95" width="130" height="3" fill="rgba(255,255,255,0.6)" rx="1.5"/>
  <rect x="25" y="105" width="120" height="3" fill="rgba(255,255,255,0.6)" rx="1.5"/>
  <rect x="25" y="115" width="110" height="3" fill="rgba(255,255,255,0.6)" rx="1.5"/>
  <rect x="25" y="125" width="125" height="3" fill="rgba(255,255,255,0.6)" rx="1.5"/>
  <rect x="25" y="135" width="100" height="3" fill="rgba(255,255,255,0.6)" rx="1.5"/>
  
  <!-- Mathematical symbols -->
  <circle cx="50" cy="165" r="8" fill="rgba(255,255,255,0.3)"/>
  <circle cx="80" cy="165" r="8" fill="rgba(255,255,255,0.3)"/>
  <circle cx="110" cy="165" r="8" fill="rgba(255,255,255,0.3)"/>
  <circle cx="140" cy="165" r="8" fill="rgba(255,255,255,0.3)"/>
  
  <!-- Bottom info -->
  <rect x="15" y="215" width="80" height="5" fill="rgba(255,255,255,0.8)" rx="2.5"/>
  <rect x="105" y="215" width="60" height="5" fill="rgba(255,255,255,0.8)" rx="2.5"/>
  
  <!-- Journal icon -->
  <g transform="translate(75, 180)">
    <rect x="-10" y="-8" width="20" height="16" fill="rgba(255,255,255,0.8)" rx="2"/>
    <rect x="-8" y="-6" width="16" height="2" fill="rgba(102,126,234,0.8)" rx="1"/>
    <rect x="-8" y="-3" width="12" height="1" fill="rgba(102,126,234,0.6)" rx="0.5"/>
    <rect x="-8" y="-1" width="14" height="1" fill="rgba(102,126,234,0.6)" rx="0.5"/>
    <rect x="-8" y="1" width="10" height="1" fill="rgba(102,126,234,0.6)" rx="0.5"/>
    <rect x="-8" y="3" width="13" height="1" fill="rgba(102,126,234,0.6)" rx="0.5"/>
    <rect x="-8" y="5" width="11" height="1" fill="rgba(102,126,234,0.6)" rx="0.5"/>
  </g>
</svg>